<svg
        version="1.1"
        xmlns="http://www.w3.org/2000/svg"
        x="0px"
        y="0px"
        viewBox="0 0 256 256"
        width="30px"
        height="30px"
        fill="#FFF"
>
    <g>
        <g>
            <path d="M132.5,119.3c-2.5,1.2-6.5,1.2-9,0L63.7,90.8c-2.5-1.2-2.7-0.9-0.5,0.7L124,135c2.2,1.5,5.8,1.6,8,0l60.8-43.4c2.1-1.5,2-1.9-0.5-0.7L132.5,119.3z" />
            <path d="M206.7,10H49.3C27.6,10,10,27.6,10,49.3v157.3c0,21.7,17.6,39.4,39.3,39.4h157.3c21.7,0,39.3-17.6,39.3-39.3V49.3C246,27.6,228.4,10,206.7,10z M206.7,167.3c0,10.9-8.8,19.7-19.6,19.7H69c-10.8,0-19.6-8.9-19.6-19.7V88.7C49.4,77.8,58.1,69,69,69h118.1c10.8,0,19.6,8.9,19.6,19.7V167.3z" />
        </g>
    </g>
</svg>